<svg width="59" height="57" viewBox="0 0 59 57" fill="none" xmlns="http://www.w3.org/2000/svg">
<g filter="url(#filter0_d)">
<g clip-path="url(#clip0)">
<path d="M6 17.3238V22.25H13.2695L6 17.3238ZM12.0243 44.75H22.7917V37.4538L12.0243 44.75ZM35.7083 37.455V44.75H46.4744L35.7083 37.455ZM6 34.75V39.6763L13.2721 34.75H6ZM46.477 12.25H35.7083V19.5462L46.477 12.25ZM52.5 39.6775V34.75H45.2266L52.5 39.6775ZM52.5 22.25V17.3238L45.2292 22.25H52.5ZM22.7917 12.25H12.0243L22.7917 19.5462V12.25Z" fill="#00247D"/>
<path d="M38.4719 34.75L51.0165 43.2513C51.6292 42.6405 52.0695 41.8877 52.2953 41.065L42.9759 34.75H38.4719ZM22.791 34.75H20.0256L7.48219 43.25C8.15515 43.9125 9.01798 44.3863 9.98544 44.6063L22.791 35.9288V34.75ZM35.7077 22.25H38.4732L51.0165 13.75C50.332 13.0779 49.4644 12.6076 48.5146 12.3938L35.7077 21.0713V22.25ZM20.0256 22.25L7.48219 13.75C6.86988 14.3612 6.42924 15.1138 6.20215 15.9363L15.5215 22.25H20.0256Z" fill="#CF1B2B"/>
<path d="M52.5 32.25H33.125V44.75H35.7083V37.455L46.4744 44.75H47.3333C48.0195 44.7501 48.6989 44.6176 49.3315 44.3602C49.9641 44.1029 50.5372 43.7258 51.0172 43.2513L38.4725 34.75H42.9765L52.2959 41.065C52.416 40.6438 52.5 40.2075 52.5 39.75V39.6775L45.2266 34.75H52.5V32.25ZM6 32.25V34.75H13.2721L6 39.6763V39.75C6 41.1138 6.56704 42.3475 7.48283 43.25L20.0262 34.75H22.7917V35.9288L9.98608 44.605C10.3658 44.6925 10.7585 44.75 11.1667 44.75H12.0243L22.7917 37.4538V44.75H25.375V32.25H6ZM52.5 17.25C52.5008 15.94 51.968 14.6824 51.0172 13.75L38.4738 22.25H35.7083V21.0713L48.5152 12.3938C48.1283 12.3019 47.7317 12.2537 47.3333 12.25H46.477L35.7083 19.5463V12.25H33.125V24.75H52.5V22.25H45.2292L52.5 17.3238V17.25ZM22.7917 12.25V19.5463L12.0243 12.25H11.1667C10.4803 12.2497 9.80081 12.3823 9.16817 12.6399C8.53553 12.8975 7.96251 13.2749 7.48283 13.75L20.0262 22.25H15.5222L6.20279 15.9363C6.07463 16.3634 6.00642 16.8053 6 17.25V17.3238L13.2695 22.25H6V24.75H25.375V12.25H22.7917Z" fill="#EEEEEE"/>
<path d="M33.125 24.75V12.25H25.375V24.75H6V32.25H25.375V44.75H33.125V32.25H52.5V24.75H33.125Z" fill="#CF1B2B"/>
</g>
</g>
<defs>
<filter id="filter0_d" x="0" y="0" width="58.5" height="57" filterUnits="userSpaceOnUse" color-interpolation-filters="sRGB">
<feFlood flood-opacity="0" result="BackgroundImageFix"/>
<feColorMatrix in="SourceAlpha" type="matrix" values="0 0 0 0 0 0 0 0 0 0 0 0 0 0 0 0 0 0 127 0"/>
<feOffset/>
<feGaussianBlur stdDeviation="3"/>
<feColorMatrix type="matrix" values="0 0 0 0 0 0 0 0 0 0 0 0 0 0 0 0 0 0 0.25 0"/>
<feBlend mode="normal" in2="BackgroundImageFix" result="effect1_dropShadow"/>
<feBlend mode="normal" in="SourceGraphic" in2="effect1_dropShadow" result="shape"/>
</filter>
<clipPath id="clip0">
<rect width="46.5" height="45" fill="white" transform="translate(6 6)"/>
</clipPath>
</defs>
</svg>
