<svg width="72" height="87" viewBox="0 0 72 87" fill="none" xmlns="http://www.w3.org/2000/svg">
<path d="M43.3708 33.9218C45.1805 33.9218 46.6202 34.5104 47.6902 35.6877C48.7733 36.8649 49.3149 38.778 49.3149 41.4269V56.1562H44.52V41.6677C44.52 39.4068 43.6152 38.2763 41.8056 38.2763C41.2376 38.2763 40.6366 38.4302 40.0026 38.7379C39.3685 39.0456 38.8336 39.5205 38.3977 40.1626C38.4241 40.5907 38.4373 40.9252 38.4373 41.166V56.1562H33.7415V41.6677C33.7415 40.4503 33.5104 39.5807 33.0481 39.059C32.5858 38.5372 31.9385 38.2763 31.1064 38.2763C30.4723 38.2763 29.8251 38.4569 29.1647 38.8181C28.5174 39.166 27.9957 39.6944 27.5994 40.4035V56.1562H22.8046V34.2629H26.8069L27.1635 36.6308H27.4211C28.808 34.8248 30.6242 33.9218 32.8698 33.9218C33.9529 33.9218 34.9039 34.1559 35.7229 34.6241C36.5418 35.0923 37.1825 35.8281 37.6448 36.8315C38.3845 35.8549 39.2497 35.1258 40.2403 34.6442C41.2442 34.1626 42.2877 33.9218 43.3708 33.9218Z" fill="#432b74"/>
<path d="M57.0206 69.4011H14.823V57.8666H19.1125V64.0033H52.731V57.9692H57.0206V69.4011Z" fill="black"/>
<path d="M25.6552 86.1009V81.8114H46.1587V86.1009H25.6552Z" fill="black"/>
<path d="M17.3884 77.6678V73.8297H54.3318V77.6678H17.3884Z" fill="black"/>
<path d="M57.0206 12.7044C54.9271 11.0214 52.7584 9.65316 50.5144 8.59959C48.2841 7.54601 45.9581 6.77294 43.5362 6.28036C41.1144 5.78778 38.5762 5.54149 35.9218 5.54149C33.2673 5.54149 30.7292 5.78778 28.3073 6.28036C25.8855 6.77294 23.5594 7.54601 21.3291 8.59959C19.0852 9.65316 16.9165 11.0214 14.823 12.7044V7.03975C17.7237 4.54949 20.9597 2.75706 24.5309 1.66244C28.0884 0.554135 31.8854 -1.52588e-05 35.9218 -1.52588e-05C39.9582 -1.52588e-05 43.7551 0.554135 47.3127 1.66244C50.8702 2.75706 54.1061 4.54949 57.0206 7.03975V12.7044Z" fill="black"/>
<path d="M58.7217 56.1654C60.4047 54.0719 61.7729 51.9032 62.8265 49.6593C63.8801 47.429 64.6531 45.1029 65.1457 42.6811C65.6383 40.2592 65.8846 37.7211 65.8846 35.0666C65.8846 32.4122 65.6383 29.874 65.1457 27.4522C64.6531 25.0303 63.8801 22.7043 62.8265 20.474C61.7729 18.23 60.4047 16.0613 58.7217 13.9678H64.3863C66.8766 16.8686 68.669 20.1045 69.7636 23.6757C70.872 27.2332 71.4261 31.0302 71.4261 35.0666C71.4261 39.103 70.872 42.9 69.7636 46.4575C68.669 50.015 66.8766 53.251 64.3863 56.1654H58.7217Z" fill="black"/>
<path d="M12.7045 56.1654C11.0215 54.0719 9.65322 51.9032 8.59965 49.6593C7.54608 47.429 6.773 45.1029 6.28042 42.6811C5.78784 40.2592 5.54155 37.7211 5.54155 35.0666C5.54155 32.4122 5.78784 29.874 6.28042 27.4522C6.773 25.0303 7.54608 22.7043 8.59965 20.474C9.65322 18.23 11.0215 16.0613 12.7045 13.9678H7.03981C4.54956 16.8686 2.75712 20.1045 1.6625 23.6757C0.554196 27.2332 4.57764e-05 31.0302 4.57764e-05 35.0666C4.57764e-05 39.103 0.554196 42.9 1.6625 46.4575C2.75712 50.015 4.54956 53.251 7.03981 56.1654H12.7045Z" fill="black"/>
</svg>
